# xmcd CD database file
#
# Track frame offsets:
#	150
#	22161
#	43672
#	74530
#	95700
#	110139
#	139498
#	160026
#	175663
#	193312
#	209627
#	224581
#	237342
#	251597
#	265111
#	284135
#	300138
#	320240
#	338592
#	351480
#
# Disc length: 4855 seconds
#
# Revision: 0
# Processed by: cddbd v1.5.1PL2 Copyright (c) Steve Scherf et al.
# Submitted via: Feurio! 1.68 - http://www.feurio.com
#
DISCID=4f12f514
DTITLE=Southside Johnny and The Asbury Jukes - Rockin' The Blues
DYEAR=1900
DGENRE=Bluesrock
TTITLE0=Got To Get You Off My Mind
TTITLE1=All I Needed Was You
TTITLE2=Stagger Lee
TTITLE3=The Fever
TTITLE4=I Don't Want to Go Home
TTITLE5=Havin' A Party
TTITLE6=Trash It Up
TTITLE7=Southside Johnny and Little Steven - Wonderful Tonight
TTITLE8=Talk To Me
TTITLE9=You Mean So Much To Me
TTITLE10=Got To Be A Better Way Home
TTITLE11=All I Want Is Everything
TTITLE12=I Played The Fool
TTITLE13=I'm So Anxious
TTITLE14=Sam Cook Medley
TTITLE15=Sweeter Than Honey
TTITLE16=Hearts Of Stone
TTITLE17=Cadillac Jack
TTITLE18=On The Beach
TTITLE19=Southside Johnny and Little Steven - If I Were A Carpenter
EXTD=
EXTT0=
EXTT1=
EXTT2=
EXTT3=
EXTT4=
EXTT5=
EXTT6=
EXTT7=
EXTT8=
EXTT9=
EXTT10=
EXTT11=
EXTT12=
EXTT13=
EXTT14=
EXTT15=
EXTT16=
EXTT17=
EXTT18=
EXTT19=
PLAYORDER=
